<?xml version="1.0" encoding="UTF-8"?>
<svg xmlns="http://www.w3.org/2000/svg" viewBox="0 0 1600 748"
     preserveAspectRatio="xMidYMid meet" width="100%" font-family="JetBrains Mono, monospace">
<defs>
  <style type="text/css"><![CDATA[
    @import url('https://fonts.googleapis.com/css2?family=JetBrains+Mono:wght@500;600;700&family=Inter:wght@400;500;600&display=swap');
    .bg            { fill: #1F1B16; }
    .bg-soft       { fill: #1F1B16; }
    .box           { fill: #26221C; stroke: #4A3D32; stroke-width: 1; }
    .box-focal     { fill: #2D2218; stroke: #D97757; stroke-width: 1.4; }
    .box-future    { fill: #221E18; stroke: #3A312A; stroke-width: 1; stroke-dasharray: 4 3; }
    .box-soft      { fill: #232019; stroke: #3A312A; stroke-width: 1; }
    .label-h       { font-family: 'JetBrains Mono', monospace; fill: #F5F4ED; font-size: 16px; font-weight: 700; letter-spacing: 0.3px; }
    .label         { font-family: 'JetBrains Mono', monospace; fill: #F5F4ED; font-size: 14px; font-weight: 600; }
    .label-sub     { font-family: 'JetBrains Mono', monospace; fill: #9C8B7E; font-size: 11px; letter-spacing: 1.4px; text-transform: uppercase; }
    .label-tiny    { font-family: 'JetBrains Mono', monospace; fill: #6F5F54; font-size: 10px; letter-spacing: 1px; text-transform: uppercase; }
    .label-radial  { font-family: 'JetBrains Mono', monospace; fill: #E0D2C4; font-size: 13px; font-weight: 600; letter-spacing: 0.6px; }
    .label-accent  { font-family: 'JetBrains Mono', monospace; fill: #D97757; font-size: 12px; font-weight: 600; letter-spacing: 1px; text-transform: uppercase; }
    .conn          { stroke: #6F5F54; stroke-width: 1; fill: none; }
    .conn-soft     { stroke: #4A3D32; stroke-width: 1; fill: none; }
    .conn-dashed   { stroke: #4A3D32; stroke-width: 1; fill: none; stroke-dasharray: 4 3; }
    .accent-fill   { fill: #D97757; }
    .accent-bright { fill: #F5B095; }
    .corner-mark   { font-family: 'JetBrains Mono', monospace; fill: #5A5750; font-size: 10px; letter-spacing: 1.4px; text-transform: uppercase; }
  ]]></style>
  <marker id="arrow" viewBox="0 0 10 10" refX="9" refY="5" markerWidth="5" markerHeight="5" orient="auto-start-reverse">
    <path d="M 0 0 L 10 5 L 0 10 z" fill="#6F5F54"/>
  </marker>
</defs>
<rect x="0.5" y="0.5" width="1599" height="747" rx="10" fill="#2A2520" stroke="#3A312A" stroke-width="1"/>

  <path d="M 0 10 Q 0 0 10 0 L 1590 0 Q 1600 0 1600 10 L 1600 48 L 0 48 Z" fill="#2A2520"/>
  <line x1="0" y1="48" x2="1600" y2="48" stroke="#3A312A" stroke-width="1"/>
  <text x="20" y="29.0" font-family="JetBrains Mono, monospace" font-size="15" fill="#E0D2C4" font-weight="600">claude-blog.app — 01 · system architecture · B</text>
  <circle cx="1516"   cy="24.0" r="9" fill="#fbbf24" stroke="#3A312A" stroke-width="0.7"/>
  <circle cx="1544"   cy="24.0" r="9" fill="#10b981"  stroke="#3A312A" stroke-width="0.7"/>
  <circle cx="1572" cy="24.0" r="9" fill="#ef4444"    stroke="#3A312A" stroke-width="0.7"/>

<g transform="translate(0, 48)">
  <rect class="bg" width="1600" height="700"/>
  <rect x="40.0" y="300.0" width="220" height="100" rx="4" class="box-focal"><animate attributeName="opacity" values="0.85;1;0.85" dur="4.2s" repeatCount="indefinite"/></rect>
<text x="150" y="345.0" class="label-accent" text-anchor="middle">entry</text>
<text x="150" y="365.0" class="label" text-anchor="middle">/blog write</text>
<rect x="320.0" y="300.0" width="220" height="100" rx="4" class="box"></rect>
<text x="430" y="345.0" class="label-accent" text-anchor="middle">orchestrator</text>
<text x="430" y="365.0" class="label" text-anchor="middle">blog/SKILL.md</text>
<rect x="680.0" y="155.0" width="240" height="90" rx="4" class="box"></rect>
<text x="800" y="195.0" class="label-accent" text-anchor="middle">sub-skills</text>
<text x="800" y="215.0" class="label" text-anchor="middle">30 modules</text>
<rect x="680.0" y="305.0" width="240" height="90" rx="4" class="box"></rect>
<text x="800" y="345.0" class="label-accent" text-anchor="middle">agents</text>
<text x="800" y="365.0" class="label" text-anchor="middle">5 specialists</text>
<rect x="680.0" y="455.0" width="240" height="90" rx="4" class="box"></rect>
<text x="800" y="495.0" class="label-accent" text-anchor="middle">context</text>
<text x="800" y="515.0" class="label" text-anchor="middle">BRAND · VOICE</text>
<rect x="1090.0" y="300.0" width="220" height="100" rx="4" class="box"></rect>
<text x="1200" y="345.0" class="label-accent" text-anchor="middle">5-gate contract</text>
<text x="1200" y="365.0" class="label" text-anchor="middle">pre-publish gate</text>
<rect x="1320.0" y="300.0" width="220" height="100" rx="4" class="box"></rect>
<text x="1430" y="345.0" class="label-accent" text-anchor="middle">post</text>
<text x="1430" y="365.0" class="label" text-anchor="middle">md · schema · assets</text>
<path d="M 260 350.0 L 320 350.0" class="conn" marker-end="url(#arrow)"/>
<path d="M 540 350.0 L 595 350.0" class="conn-soft"/>
<path d="M 595 200 L 595 500" class="conn-soft"/>
<path d="M 595 200 L 680 200" class="conn" marker-end="url(#arrow)"/>
<path d="M 595 350.0 L 680 350.0" class="conn" marker-end="url(#arrow)"/>
<path d="M 595 500 L 680 500" class="conn" marker-end="url(#arrow)"/>
<path d="M 920 200 L 1020 200" class="conn-soft"/>
<path d="M 920 350.0 L 1020 350.0" class="conn-soft"/>
<path d="M 920 500 L 1020 500" class="conn-soft"/>
<path d="M 1020 200 L 1020 500" class="conn-soft"/>
<path d="M 1020 350.0 L 1090 350.0" class="conn" marker-end="url(#arrow)"/>
<path d="M 1310 350.0 L 1320 350.0" class="conn" marker-end="url(#arrow)"/>
  <text x="1580" y="688" class="corner-mark" text-anchor="end">01 · system architecture · B</text>
</g>
</svg>
