<?xml version="1.0" encoding="UTF-8"?>
<svg xmlns="http://www.w3.org/2000/svg" viewBox="0 0 1600 1248"
     preserveAspectRatio="xMidYMid meet" width="100%" font-family="JetBrains Mono, monospace">
<defs>
  <style type="text/css"><![CDATA[
    @import url('https://fonts.googleapis.com/css2?family=JetBrains+Mono:wght@500;600;700&family=Inter:wght@400;500;600&display=swap');
    .bg            { fill: #1F1B16; }
    .bg-soft       { fill: #1F1B16; }
    .box           { fill: #26221C; stroke: #4A3D32; stroke-width: 1; }
    .box-focal     { fill: #2D2218; stroke: #D97757; stroke-width: 1.4; }
    .box-future    { fill: #221E18; stroke: #3A312A; stroke-width: 1; stroke-dasharray: 4 3; }
    .box-soft      { fill: #232019; stroke: #3A312A; stroke-width: 1; }
    .label-h       { font-family: 'JetBrains Mono', monospace; fill: #F5F4ED; font-size: 16px; font-weight: 700; letter-spacing: 0.3px; }
    .label         { font-family: 'JetBrains Mono', monospace; fill: #F5F4ED; font-size: 14px; font-weight: 600; }
    .label-sub     { font-family: 'JetBrains Mono', monospace; fill: #9C8B7E; font-size: 11px; letter-spacing: 1.4px; text-transform: uppercase; }
    .label-tiny    { font-family: 'JetBrains Mono', monospace; fill: #6F5F54; font-size: 10px; letter-spacing: 1px; text-transform: uppercase; }
    .label-radial  { font-family: 'JetBrains Mono', monospace; fill: #E0D2C4; font-size: 13px; font-weight: 600; letter-spacing: 0.6px; }
    .label-accent  { font-family: 'JetBrains Mono', monospace; fill: #D97757; font-size: 12px; font-weight: 600; letter-spacing: 1px; text-transform: uppercase; }
    .conn          { stroke: #6F5F54; stroke-width: 1; fill: none; }
    .conn-soft     { stroke: #4A3D32; stroke-width: 1; fill: none; }
    .conn-dashed   { stroke: #4A3D32; stroke-width: 1; fill: none; stroke-dasharray: 4 3; }
    .accent-fill   { fill: #D97757; }
    .accent-bright { fill: #F5B095; }
    .corner-mark   { font-family: 'JetBrains Mono', monospace; fill: #5A5750; font-size: 10px; letter-spacing: 1.4px; text-transform: uppercase; }
  ]]></style>
  <marker id="arrow" viewBox="0 0 10 10" refX="9" refY="5" markerWidth="5" markerHeight="5" orient="auto-start-reverse">
    <path d="M 0 0 L 10 5 L 0 10 z" fill="#6F5F54"/>
  </marker>
</defs>
<rect x="0.5" y="0.5" width="1599" height="1247" rx="10" fill="#2A2520" stroke="#3A312A" stroke-width="1"/>

  <path d="M 0 10 Q 0 0 10 0 L 1590 0 Q 1600 0 1600 10 L 1600 48 L 0 48 Z" fill="#2A2520"/>
  <line x1="0" y1="48" x2="1600" y2="48" stroke="#3A312A" stroke-width="1"/>
  <text x="20" y="29.0" font-family="JetBrains Mono, monospace" font-size="15" fill="#E0D2C4" font-weight="600">claude-blog.app — 03 · sub-skill ecosystem · A</text>
  <circle cx="1516"   cy="24.0" r="9" fill="#fbbf24" stroke="#3A312A" stroke-width="0.7"/>
  <circle cx="1544"   cy="24.0" r="9" fill="#10b981"  stroke="#3A312A" stroke-width="0.7"/>
  <circle cx="1572" cy="24.0" r="9" fill="#ef4444"    stroke="#3A312A" stroke-width="0.7"/>

<g transform="translate(0, 48)">
  <rect class="bg" width="1600" height="1200"/>
  <text x="800.0" y="80" class="label-sub" text-anchor="middle">30 sub-skills · 8 categories</text>
<text x="70.0" y="158" class="label-accent" text-anchor="start">WRITING</text>
<text x="395.0" y="158" class="label-tiny" text-anchor="end">04</text>
<rect x="60.0" y="175" width="345.0" height="222" rx="6" class="box-soft"></rect>
<rect x="80.0" y="191.0" width="305.0" height="42" rx="4" class="box"></rect>
<text x="232.5" y="217.0" class="label" text-anchor="middle">blog-write</text>
<rect x="80.0" y="243.0" width="305.0" height="42" rx="4" class="box"></rect>
<text x="232.5" y="269.0" class="label" text-anchor="middle">blog-rewrite</text>
<rect x="80.0" y="295.0" width="305.0" height="42" rx="4" class="box"></rect>
<text x="232.5" y="321.0" class="label" text-anchor="middle">blog-outline</text>
<rect x="80.0" y="347.0" width="305.0" height="42" rx="4" class="box"></rect>
<text x="232.5" y="373.0" class="label" text-anchor="middle">blog-brief</text>
<text x="445.0" y="158" class="label-accent" text-anchor="start">STRATEGY</text>
<text x="770.0" y="158" class="label-tiny" text-anchor="end">05</text>
<rect x="435.0" y="175" width="345.0" height="274" rx="6" class="box-soft"></rect>
<rect x="455.0" y="191.0" width="305.0" height="42" rx="4" class="box"></rect>
<text x="607.5" y="217.0" class="label" text-anchor="middle">blog-strategy</text>
<rect x="455.0" y="243.0" width="305.0" height="42" rx="4" class="box"></rect>
<text x="607.5" y="269.0" class="label" text-anchor="middle">blog-calendar</text>
<rect x="455.0" y="295.0" width="305.0" height="42" rx="4" class="box"></rect>
<text x="607.5" y="321.0" class="label" text-anchor="middle">blog-cluster</text>
<rect x="455.0" y="347.0" width="305.0" height="42" rx="4" class="box"></rect>
<text x="607.5" y="373.0" class="label" text-anchor="middle">blog-persona</text>
<rect x="455.0" y="399.0" width="305.0" height="42" rx="4" class="box"></rect>
<text x="607.5" y="425.0" class="label" text-anchor="middle">blog-brand</text>
<text x="820.0" y="158" class="label-accent" text-anchor="start">QUALITY</text>
<text x="1145.0" y="158" class="label-tiny" text-anchor="end">05</text>
<rect x="810.0" y="175" width="345.0" height="274" rx="6" class="box-soft"></rect>
<rect x="830.0" y="191.0" width="305.0" height="42" rx="4" class="box"></rect>
<text x="982.5" y="217.0" class="label" text-anchor="middle">blog-seo-check</text>
<rect x="830.0" y="243.0" width="305.0" height="42" rx="4" class="box"></rect>
<text x="982.5" y="269.0" class="label" text-anchor="middle">blog-analyze</text>
<rect x="830.0" y="295.0" width="305.0" height="42" rx="4" class="box"></rect>
<text x="982.5" y="321.0" class="label" text-anchor="middle">blog-audit</text>
<rect x="830.0" y="347.0" width="305.0" height="42" rx="4" class="box"></rect>
<text x="982.5" y="373.0" class="label" text-anchor="middle">blog-cannibalization</text>
<rect x="830.0" y="399.0" width="305.0" height="42" rx="4" class="box"></rect>
<text x="982.5" y="425.0" class="label" text-anchor="middle">blog-factcheck</text>
<text x="1195.0" y="158" class="label-accent" text-anchor="start">AI · SEARCH</text>
<text x="1520.0" y="158" class="label-tiny" text-anchor="end">03</text>
<rect x="1185.0" y="175" width="345.0" height="170" rx="6" class="box-soft"></rect>
<rect x="1205.0" y="191.0" width="305.0" height="42" rx="4" class="box"></rect>
<text x="1357.5" y="217.0" class="label" text-anchor="middle">blog-geo</text>
<rect x="1205.0" y="243.0" width="305.0" height="42" rx="4" class="box"></rect>
<text x="1357.5" y="269.0" class="label" text-anchor="middle">blog-schema</text>
<rect x="1205.0" y="295.0" width="305.0" height="42" rx="4" class="box"></rect>
<text x="1357.5" y="321.0" class="label" text-anchor="middle">blog-flow</text>
<text x="70.0" y="638" class="label-accent" text-anchor="start">MULTILINGUAL</text>
<text x="395.0" y="638" class="label-tiny" text-anchor="end">04</text>
<rect x="60.0" y="655" width="345.0" height="222" rx="6" class="box-soft"></rect>
<rect x="80.0" y="671.0" width="305.0" height="42" rx="4" class="box"></rect>
<text x="232.5" y="697.0" class="label" text-anchor="middle">blog-multilingual</text>
<rect x="80.0" y="723.0" width="305.0" height="42" rx="4" class="box"></rect>
<text x="232.5" y="749.0" class="label" text-anchor="middle">blog-translate</text>
<rect x="80.0" y="775.0" width="305.0" height="42" rx="4" class="box"></rect>
<text x="232.5" y="801.0" class="label" text-anchor="middle">blog-localize</text>
<rect x="80.0" y="827.0" width="305.0" height="42" rx="4" class="box"></rect>
<text x="232.5" y="853.0" class="label" text-anchor="middle">blog-locale-audit</text>
<text x="445.0" y="638" class="label-accent" text-anchor="start">RESEARCH</text>
<text x="770.0" y="638" class="label-tiny" text-anchor="end">03</text>
<rect x="435.0" y="655" width="345.0" height="170" rx="6" class="box-soft"></rect>
<rect x="455.0" y="671.0" width="305.0" height="42" rx="4" class="box"></rect>
<text x="607.5" y="697.0" class="label" text-anchor="middle">blog-discourse</text>
<rect x="455.0" y="723.0" width="305.0" height="42" rx="4" class="box"></rect>
<text x="607.5" y="749.0" class="label" text-anchor="middle">blog-notebooklm</text>
<rect x="455.0" y="775.0" width="305.0" height="42" rx="4" class="box"></rect>
<text x="607.5" y="801.0" class="label" text-anchor="middle">blog-google</text>
<text x="820.0" y="638" class="label-accent" text-anchor="start">MEDIA</text>
<text x="1145.0" y="638" class="label-tiny" text-anchor="end">03</text>
<rect x="810.0" y="655" width="345.0" height="170" rx="6" class="box-soft"></rect>
<rect x="830.0" y="671.0" width="305.0" height="42" rx="4" class="box"></rect>
<text x="982.5" y="697.0" class="label" text-anchor="middle">blog-image</text>
<rect x="830.0" y="723.0" width="305.0" height="42" rx="4" class="box"></rect>
<text x="982.5" y="749.0" class="label" text-anchor="middle">blog-audio</text>
<rect x="830.0" y="775.0" width="305.0" height="42" rx="4" class="box"></rect>
<text x="982.5" y="801.0" class="label" text-anchor="middle">blog-chart</text>
<text x="1195.0" y="638" class="label-accent" text-anchor="start">DISTRIBUTION</text>
<text x="1520.0" y="638" class="label-tiny" text-anchor="end">02</text>
<rect x="1185.0" y="655" width="345.0" height="118" rx="6" class="box-soft"></rect>
<rect x="1205.0" y="671.0" width="305.0" height="42" rx="4" class="box"></rect>
<text x="1357.5" y="697.0" class="label" text-anchor="middle">blog-repurpose</text>
<rect x="1205.0" y="723.0" width="305.0" height="42" rx="4" class="box"></rect>
<text x="1357.5" y="749.0" class="label" text-anchor="middle">blog-taxonomy</text>
  <text x="1580" y="1188" class="corner-mark" text-anchor="end">03 · sub-skill ecosystem · A</text>
</g>
</svg>
