<?xml version="1.0" encoding="UTF-8"?>
<svg xmlns="http://www.w3.org/2000/svg" viewBox="0 0 1600 1248"
     preserveAspectRatio="xMidYMid meet" width="100%" font-family="JetBrains Mono, monospace">
<defs>
  <style type="text/css"><![CDATA[
    @import url('https://fonts.googleapis.com/css2?family=JetBrains+Mono:wght@500;600;700&family=Inter:wght@400;500;600&display=swap');
    .bg            { fill: #1F1B16; }
    .bg-soft       { fill: #1F1B16; }
    .box           { fill: #26221C; stroke: #4A3D32; stroke-width: 1; }
    .box-focal     { fill: #2D2218; stroke: #D97757; stroke-width: 1.4; }
    .box-future    { fill: #221E18; stroke: #3A312A; stroke-width: 1; stroke-dasharray: 4 3; }
    .box-soft      { fill: #232019; stroke: #3A312A; stroke-width: 1; }
    .label-h       { font-family: 'JetBrains Mono', monospace; fill: #F5F4ED; font-size: 16px; font-weight: 700; letter-spacing: 0.3px; }
    .label         { font-family: 'JetBrains Mono', monospace; fill: #F5F4ED; font-size: 14px; font-weight: 600; }
    .label-sub     { font-family: 'JetBrains Mono', monospace; fill: #9C8B7E; font-size: 11px; letter-spacing: 1.4px; text-transform: uppercase; }
    .label-tiny    { font-family: 'JetBrains Mono', monospace; fill: #6F5F54; font-size: 10px; letter-spacing: 1px; text-transform: uppercase; }
    .label-radial  { font-family: 'JetBrains Mono', monospace; fill: #E0D2C4; font-size: 13px; font-weight: 600; letter-spacing: 0.6px; }
    .label-accent  { font-family: 'JetBrains Mono', monospace; fill: #D97757; font-size: 12px; font-weight: 600; letter-spacing: 1px; text-transform: uppercase; }
    .conn          { stroke: #6F5F54; stroke-width: 1; fill: none; }
    .conn-soft     { stroke: #4A3D32; stroke-width: 1; fill: none; }
    .conn-dashed   { stroke: #4A3D32; stroke-width: 1; fill: none; stroke-dasharray: 4 3; }
    .accent-fill   { fill: #D97757; }
    .accent-bright { fill: #F5B095; }
    .corner-mark   { font-family: 'JetBrains Mono', monospace; fill: #5A5750; font-size: 10px; letter-spacing: 1.4px; text-transform: uppercase; }
  ]]></style>
  <marker id="arrow" viewBox="0 0 10 10" refX="9" refY="5" markerWidth="5" markerHeight="5" orient="auto-start-reverse">
    <path d="M 0 0 L 10 5 L 0 10 z" fill="#6F5F54"/>
  </marker>
</defs>
<rect x="0.5" y="0.5" width="1599" height="1247" rx="10" fill="#2A2520" stroke="#3A312A" stroke-width="1"/>

  <path d="M 0 10 Q 0 0 10 0 L 1590 0 Q 1600 0 1600 10 L 1600 48 L 0 48 Z" fill="#2A2520"/>
  <line x1="0" y1="48" x2="1600" y2="48" stroke="#3A312A" stroke-width="1"/>
  <text x="20" y="29.0" font-family="JetBrains Mono, monospace" font-size="15" fill="#E0D2C4" font-weight="600">claude-blog.app — 03 · sub-skill ecosystem · B</text>
  <circle cx="1516"   cy="24.0" r="9" fill="#fbbf24" stroke="#3A312A" stroke-width="0.7"/>
  <circle cx="1544"   cy="24.0" r="9" fill="#10b981"  stroke="#3A312A" stroke-width="0.7"/>
  <circle cx="1572" cy="24.0" r="9" fill="#ef4444"    stroke="#3A312A" stroke-width="0.7"/>

<g transform="translate(0, 48)">
  <rect class="bg" width="1600" height="1200"/>
  <path d="M 260.0 286.0 L 260.0 545.0" class="conn-soft"/>
<path d="M 650.0 308.0 L 650.0 545.0" class="conn-soft"/>
<path d="M 950.0 270.0 L 950.0 545.0" class="conn-soft"/>
<path d="M 1340.0 270.0 L 1340.0 545.0" class="conn-soft"/>
<path d="M 260.0 892.0 L 260.0 655.0" class="conn-soft"/>
<path d="M 650.0 930.0 L 650.0 655.0" class="conn-soft"/>
<path d="M 950.0 914.0 L 950.0 655.0" class="conn-soft"/>
<path d="M 1340.0 930.0 L 1340.0 655.0" class="conn-soft"/>
<path d="M 260.0 545.0 L 1340.0 545.0" class="conn-soft"/>
<path d="M 260.0 655.0 L 1340.0 655.0" class="conn-soft"/>
<rect x="80.0" y="34.0" width="360" height="252" rx="8" class="box-soft"></rect>
<text x="98.0" y="60.0" class="label-accent" text-anchor="start">WRITING</text>
<text x="422.0" y="60.0" class="label-tiny" text-anchor="end">04</text>
<rect x="100.0" y="84.0" width="320" height="38" rx="4" class="box"></rect>
<text x="260.0" y="108.0" class="label" text-anchor="middle">blog-write</text>
<rect x="100.0" y="128.0" width="320" height="38" rx="4" class="box"></rect>
<text x="260.0" y="152.0" class="label" text-anchor="middle">blog-rewrite</text>
<rect x="100.0" y="172.0" width="320" height="38" rx="4" class="box"></rect>
<text x="260.0" y="196.0" class="label" text-anchor="middle">blog-outline</text>
<rect x="100.0" y="216.0" width="320" height="38" rx="4" class="box"></rect>
<text x="260.0" y="240.0" class="label" text-anchor="middle">blog-brief</text>
<rect x="470.0" y="12.0" width="360" height="296" rx="8" class="box-soft"></rect>
<text x="488.0" y="38.0" class="label-accent" text-anchor="start">STRATEGY</text>
<text x="812.0" y="38.0" class="label-tiny" text-anchor="end">05</text>
<rect x="490.0" y="62.0" width="320" height="38" rx="4" class="box"></rect>
<text x="650.0" y="86.0" class="label" text-anchor="middle">blog-strategy</text>
<rect x="490.0" y="106.0" width="320" height="38" rx="4" class="box"></rect>
<text x="650.0" y="130.0" class="label" text-anchor="middle">blog-calendar</text>
<rect x="490.0" y="150.0" width="320" height="38" rx="4" class="box"></rect>
<text x="650.0" y="174.0" class="label" text-anchor="middle">blog-cluster</text>
<rect x="490.0" y="194.0" width="320" height="38" rx="4" class="box"></rect>
<text x="650.0" y="218.0" class="label" text-anchor="middle">blog-persona</text>
<rect x="490.0" y="238.0" width="320" height="38" rx="4" class="box"></rect>
<text x="650.0" y="262.0" class="label" text-anchor="middle">blog-brand</text>
<rect x="770.0" y="50.0" width="360" height="220" rx="8" class="box-soft"></rect>
<text x="788.0" y="76.0" class="label-accent" text-anchor="start">RESEARCH</text>
<text x="1112.0" y="76.0" class="label-tiny" text-anchor="end">03</text>
<rect x="790.0" y="100.0" width="320" height="38" rx="4" class="box"></rect>
<text x="950.0" y="124.0" class="label" text-anchor="middle">blog-discourse</text>
<rect x="790.0" y="144.0" width="320" height="38" rx="4" class="box"></rect>
<text x="950.0" y="168.0" class="label" text-anchor="middle">blog-notebooklm</text>
<rect x="790.0" y="188.0" width="320" height="38" rx="4" class="box"></rect>
<text x="950.0" y="212.0" class="label" text-anchor="middle">blog-google</text>
<rect x="1160.0" y="50.0" width="360" height="220" rx="8" class="box-soft"></rect>
<text x="1178.0" y="76.0" class="label-accent" text-anchor="start">MEDIA</text>
<text x="1502.0" y="76.0" class="label-tiny" text-anchor="end">03</text>
<rect x="1180.0" y="100.0" width="320" height="38" rx="4" class="box"></rect>
<text x="1340.0" y="124.0" class="label" text-anchor="middle">blog-image</text>
<rect x="1180.0" y="144.0" width="320" height="38" rx="4" class="box"></rect>
<text x="1340.0" y="168.0" class="label" text-anchor="middle">blog-audio</text>
<rect x="1180.0" y="188.0" width="320" height="38" rx="4" class="box"></rect>
<text x="1340.0" y="212.0" class="label" text-anchor="middle">blog-chart</text>
<rect x="80.0" y="892.0" width="360" height="296" rx="8" class="box-soft"></rect>
<text x="98.0" y="918.0" class="label-accent" text-anchor="start">QUALITY</text>
<text x="422.0" y="918.0" class="label-tiny" text-anchor="end">05</text>
<rect x="100.0" y="942.0" width="320" height="38" rx="4" class="box"></rect>
<text x="260.0" y="966.0" class="label" text-anchor="middle">blog-seo-check</text>
<rect x="100.0" y="986.0" width="320" height="38" rx="4" class="box"></rect>
<text x="260.0" y="1010.0" class="label" text-anchor="middle">blog-analyze</text>
<rect x="100.0" y="1030.0" width="320" height="38" rx="4" class="box"></rect>
<text x="260.0" y="1054.0" class="label" text-anchor="middle">blog-audit</text>
<rect x="100.0" y="1074.0" width="320" height="38" rx="4" class="box"></rect>
<text x="260.0" y="1098.0" class="label" text-anchor="middle">blog-cannibalization</text>
<rect x="100.0" y="1118.0" width="320" height="38" rx="4" class="box"></rect>
<text x="260.0" y="1142.0" class="label" text-anchor="middle">blog-factcheck</text>
<rect x="470.0" y="930.0" width="360" height="220" rx="8" class="box-soft"></rect>
<text x="488.0" y="956.0" class="label-accent" text-anchor="start">AI · SEARCH</text>
<text x="812.0" y="956.0" class="label-tiny" text-anchor="end">03</text>
<rect x="490.0" y="980.0" width="320" height="38" rx="4" class="box"></rect>
<text x="650.0" y="1004.0" class="label" text-anchor="middle">blog-geo</text>
<rect x="490.0" y="1024.0" width="320" height="38" rx="4" class="box"></rect>
<text x="650.0" y="1048.0" class="label" text-anchor="middle">blog-schema</text>
<rect x="490.0" y="1068.0" width="320" height="38" rx="4" class="box"></rect>
<text x="650.0" y="1092.0" class="label" text-anchor="middle">blog-flow</text>
<rect x="770.0" y="914.0" width="360" height="252" rx="8" class="box-soft"></rect>
<text x="788.0" y="940.0" class="label-accent" text-anchor="start">MULTILINGUAL</text>
<text x="1112.0" y="940.0" class="label-tiny" text-anchor="end">04</text>
<rect x="790.0" y="964.0" width="320" height="38" rx="4" class="box"></rect>
<text x="950.0" y="988.0" class="label" text-anchor="middle">blog-multilingual</text>
<rect x="790.0" y="1008.0" width="320" height="38" rx="4" class="box"></rect>
<text x="950.0" y="1032.0" class="label" text-anchor="middle">blog-translate</text>
<rect x="790.0" y="1052.0" width="320" height="38" rx="4" class="box"></rect>
<text x="950.0" y="1076.0" class="label" text-anchor="middle">blog-localize</text>
<rect x="790.0" y="1096.0" width="320" height="38" rx="4" class="box"></rect>
<text x="950.0" y="1120.0" class="label" text-anchor="middle">blog-locale-audit</text>
<rect x="1160.0" y="930.0" width="360" height="220" rx="8" class="box-soft"></rect>
<text x="1178.0" y="956.0" class="label-accent" text-anchor="start">DISTRIBUTION</text>
<text x="1502.0" y="956.0" class="label-tiny" text-anchor="end">02</text>
<rect x="1180.0" y="980.0" width="320" height="38" rx="4" class="box"></rect>
<text x="1340.0" y="1004.0" class="label" text-anchor="middle">blog-repurpose</text>
<rect x="1180.0" y="1024.0" width="320" height="38" rx="4" class="box"></rect>
<text x="1340.0" y="1048.0" class="label" text-anchor="middle">blog-taxonomy</text>
<rect x="640.0" y="545.0" width="320" height="110" rx="4" class="box-focal"><animate attributeName="opacity" values="0.85;1;0.85" dur="4.2s" repeatCount="indefinite"/></rect>
<text x="800.0" y="595.0" class="label-accent" text-anchor="middle">orchestrator</text>
<text x="800.0" y="615.0" class="label" text-anchor="middle">blog/SKILL.md</text>
  <text x="1580" y="1188" class="corner-mark" text-anchor="end">03 · sub-skill ecosystem · B</text>
</g>
</svg>
