<?xml version="1.0" encoding="UTF-8"?>
<svg xmlns="http://www.w3.org/2000/svg" viewBox="0 0 1700 768"
     preserveAspectRatio="xMidYMid meet" width="100%" font-family="JetBrains Mono, monospace">
<defs>
  <style type="text/css"><![CDATA[
    @import url('https://fonts.googleapis.com/css2?family=JetBrains+Mono:wght@500;600;700&family=Inter:wght@400;500;600&display=swap');
    .bg            { fill: #1F1B16; }
    .bg-soft       { fill: #1F1B16; }
    .box           { fill: #26221C; stroke: #4A3D32; stroke-width: 1; }
    .box-focal     { fill: #2D2218; stroke: #D97757; stroke-width: 1.4; }
    .box-future    { fill: #221E18; stroke: #3A312A; stroke-width: 1; stroke-dasharray: 4 3; }
    .box-soft      { fill: #232019; stroke: #3A312A; stroke-width: 1; }
    .label-h       { font-family: 'JetBrains Mono', monospace; fill: #F5F4ED; font-size: 16px; font-weight: 700; letter-spacing: 0.3px; }
    .label         { font-family: 'JetBrains Mono', monospace; fill: #F5F4ED; font-size: 14px; font-weight: 600; }
    .label-sub     { font-family: 'JetBrains Mono', monospace; fill: #9C8B7E; font-size: 11px; letter-spacing: 1.4px; text-transform: uppercase; }
    .label-tiny    { font-family: 'JetBrains Mono', monospace; fill: #6F5F54; font-size: 10px; letter-spacing: 1px; text-transform: uppercase; }
    .label-radial  { font-family: 'JetBrains Mono', monospace; fill: #E0D2C4; font-size: 13px; font-weight: 600; letter-spacing: 0.6px; }
    .label-accent  { font-family: 'JetBrains Mono', monospace; fill: #D97757; font-size: 12px; font-weight: 600; letter-spacing: 1px; text-transform: uppercase; }
    .conn          { stroke: #6F5F54; stroke-width: 1; fill: none; }
    .conn-soft     { stroke: #4A3D32; stroke-width: 1; fill: none; }
    .conn-dashed   { stroke: #4A3D32; stroke-width: 1; fill: none; stroke-dasharray: 4 3; }
    .accent-fill   { fill: #D97757; }
    .accent-bright { fill: #F5B095; }
    .corner-mark   { font-family: 'JetBrains Mono', monospace; fill: #5A5750; font-size: 10px; letter-spacing: 1.4px; text-transform: uppercase; }
  ]]></style>
  <marker id="arrow" viewBox="0 0 10 10" refX="9" refY="5" markerWidth="5" markerHeight="5" orient="auto-start-reverse">
    <path d="M 0 0 L 10 5 L 0 10 z" fill="#6F5F54"/>
  </marker>
</defs>
<rect x="0.5" y="0.5" width="1699" height="767" rx="10" fill="#2A2520" stroke="#3A312A" stroke-width="1"/>

  <path d="M 0 10 Q 0 0 10 0 L 1690 0 Q 1700 0 1700 10 L 1700 48 L 0 48 Z" fill="#2A2520"/>
  <line x1="0" y1="48" x2="1700" y2="48" stroke="#3A312A" stroke-width="1"/>
  <text x="20" y="29.0" font-family="JetBrains Mono, monospace" font-size="15" fill="#E0D2C4" font-weight="600">claude-blog.app — 04 · FLOW framework · A</text>
  <circle cx="1616"   cy="24.0" r="9" fill="#fbbf24" stroke="#3A312A" stroke-width="0.7"/>
  <circle cx="1644"   cy="24.0" r="9" fill="#10b981"  stroke="#3A312A" stroke-width="0.7"/>
  <circle cx="1672" cy="24.0" r="9" fill="#ef4444"    stroke="#3A312A" stroke-width="0.7"/>

<g transform="translate(0, 48)">
  <rect class="bg" width="1700" height="720"/>
  <text x="850.0" y="60" class="label-sub" text-anchor="middle">FLOW framework · 4 phases · 30 evidence-led prompts</text>
<rect x="130.0" y="145.0" width="315.0" height="110" rx="4" class="box-focal"><animate attributeName="opacity" values="0.85;1;0.85" dur="4.2s" repeatCount="indefinite"/></rect>
<text x="287.5" y="185.0" class="label-accent" text-anchor="middle">phase 01</text>
<text x="287.5" y="205.0" class="label" text-anchor="middle">find</text>
<text x="287.5" y="225.0" class="label" text-anchor="middle">discover topics</text>
<path d="M 449.0 200 L 501.0 200" class="conn" marker-end="url(#arrow)"/>
<rect x="145.0" y="302.0" width="285.0" height="56" rx="4" class="box"></rect>
<text x="287.5" y="335.0" class="label" text-anchor="middle">topic-discovery</text>
<rect x="145.0" y="372.0" width="285.0" height="56" rx="4" class="box"></rect>
<text x="287.5" y="405.0" class="label" text-anchor="middle">intent-mapping</text>
<rect x="145.0" y="442.0" width="285.0" height="56" rx="4" class="box"></rect>
<text x="287.5" y="475.0" class="label" text-anchor="middle">gap-analysis</text>
<rect x="505.0" y="145.0" width="315.0" height="110" rx="4" class="box"></rect>
<text x="662.5" y="185.0" class="label-accent" text-anchor="middle">phase 02</text>
<text x="662.5" y="205.0" class="label" text-anchor="middle">leverage</text>
<text x="662.5" y="225.0" class="label" text-anchor="middle">amplify assets</text>
<path d="M 824.0 200 L 876.0 200" class="conn" marker-end="url(#arrow)"/>
<rect x="520.0" y="302.0" width="285.0" height="56" rx="4" class="box"></rect>
<text x="662.5" y="335.0" class="label" text-anchor="middle">asset-audit</text>
<rect x="520.0" y="372.0" width="285.0" height="56" rx="4" class="box"></rect>
<text x="662.5" y="405.0" class="label" text-anchor="middle">repurpose-map</text>
<rect x="880.0" y="145.0" width="315.0" height="110" rx="4" class="box"></rect>
<text x="1037.5" y="185.0" class="label-accent" text-anchor="middle">phase 03</text>
<text x="1037.5" y="205.0" class="label" text-anchor="middle">optimize</text>
<text x="1037.5" y="225.0" class="label" text-anchor="middle">improve content</text>
<path d="M 1199.0 200 L 1251.0 200" class="conn" marker-end="url(#arrow)"/>
<rect x="895.0" y="302.0" width="285.0" height="56" rx="4" class="box"></rect>
<text x="1037.5" y="335.0" class="label" text-anchor="middle">serp-realignment</text>
<rect x="895.0" y="372.0" width="285.0" height="56" rx="4" class="box"></rect>
<text x="1037.5" y="405.0" class="label" text-anchor="middle">freshness-pass</text>
<rect x="895.0" y="442.0" width="285.0" height="56" rx="4" class="box"></rect>
<text x="1037.5" y="475.0" class="label" text-anchor="middle">internal-loop</text>
<rect x="1255.0" y="145.0" width="315.0" height="110" rx="4" class="box"></rect>
<text x="1412.5" y="185.0" class="label-accent" text-anchor="middle">phase 04</text>
<text x="1412.5" y="205.0" class="label" text-anchor="middle">win</text>
<text x="1412.5" y="225.0" class="label" text-anchor="middle">convert readers</text>
<rect x="1270.0" y="302.0" width="285.0" height="56" rx="4" class="box"></rect>
<text x="1412.5" y="335.0" class="label" text-anchor="middle">bofu-cta</text>
<rect x="1270.0" y="372.0" width="285.0" height="56" rx="4" class="box"></rect>
<text x="1412.5" y="405.0" class="label" text-anchor="middle">dual-surface-score</text>
  <text x="1680" y="708" class="corner-mark" text-anchor="end">04 · FLOW framework · A</text>
</g>
</svg>
