<?xml version="1.0" encoding="UTF-8"?>
<svg xmlns="http://www.w3.org/2000/svg" viewBox="0 0 1500 1548"
     preserveAspectRatio="xMidYMid meet" width="100%" font-family="JetBrains Mono, monospace">
<defs>
  <style type="text/css"><![CDATA[
    @import url('https://fonts.googleapis.com/css2?family=JetBrains+Mono:wght@500;600;700&family=Inter:wght@400;500;600&display=swap');
    .bg            { fill: #1F1B16; }
    .bg-soft       { fill: #1F1B16; }
    .box           { fill: #26221C; stroke: #4A3D32; stroke-width: 1; }
    .box-focal     { fill: #2D2218; stroke: #D97757; stroke-width: 1.4; }
    .box-future    { fill: #221E18; stroke: #3A312A; stroke-width: 1; stroke-dasharray: 4 3; }
    .box-soft      { fill: #232019; stroke: #3A312A; stroke-width: 1; }
    .label-h       { font-family: 'JetBrains Mono', monospace; fill: #F5F4ED; font-size: 16px; font-weight: 700; letter-spacing: 0.3px; }
    .label         { font-family: 'JetBrains Mono', monospace; fill: #F5F4ED; font-size: 14px; font-weight: 600; }
    .label-sub     { font-family: 'JetBrains Mono', monospace; fill: #9C8B7E; font-size: 11px; letter-spacing: 1.4px; text-transform: uppercase; }
    .label-tiny    { font-family: 'JetBrains Mono', monospace; fill: #6F5F54; font-size: 10px; letter-spacing: 1px; text-transform: uppercase; }
    .label-radial  { font-family: 'JetBrains Mono', monospace; fill: #E0D2C4; font-size: 13px; font-weight: 600; letter-spacing: 0.6px; }
    .label-accent  { font-family: 'JetBrains Mono', monospace; fill: #D97757; font-size: 12px; font-weight: 600; letter-spacing: 1px; text-transform: uppercase; }
    .conn          { stroke: #6F5F54; stroke-width: 1; fill: none; }
    .conn-soft     { stroke: #4A3D32; stroke-width: 1; fill: none; }
    .conn-dashed   { stroke: #4A3D32; stroke-width: 1; fill: none; stroke-dasharray: 4 3; }
    .accent-fill   { fill: #D97757; }
    .accent-bright { fill: #F5B095; }
    .corner-mark   { font-family: 'JetBrains Mono', monospace; fill: #5A5750; font-size: 10px; letter-spacing: 1.4px; text-transform: uppercase; }
  ]]></style>
  <marker id="arrow" viewBox="0 0 10 10" refX="9" refY="5" markerWidth="5" markerHeight="5" orient="auto-start-reverse">
    <path d="M 0 0 L 10 5 L 0 10 z" fill="#6F5F54"/>
  </marker>
</defs>
<rect x="0.5" y="0.5" width="1499" height="1547" rx="10" fill="#2A2520" stroke="#3A312A" stroke-width="1"/>

  <path d="M 0 10 Q 0 0 10 0 L 1490 0 Q 1500 0 1500 10 L 1500 48 L 0 48 Z" fill="#2A2520"/>
  <line x1="0" y1="48" x2="1500" y2="48" stroke="#3A312A" stroke-width="1"/>
  <text x="20" y="29.0" font-family="JetBrains Mono, monospace" font-size="15" fill="#E0D2C4" font-weight="600">claude-blog.app — 04 · FLOW framework · B</text>
  <circle cx="1416"   cy="24.0" r="9" fill="#fbbf24" stroke="#3A312A" stroke-width="0.7"/>
  <circle cx="1444"   cy="24.0" r="9" fill="#10b981"  stroke="#3A312A" stroke-width="0.7"/>
  <circle cx="1472" cy="24.0" r="9" fill="#ef4444"    stroke="#3A312A" stroke-width="0.7"/>

<g transform="translate(0, 48)">
  <rect class="bg" width="1500" height="1500"/>
  <circle cx="750.0" cy="750.0" r="580" fill="none" stroke="#6F3922" stroke-width="1" stroke-dasharray="3 3" opacity="0.25"/>
<circle cx="750.0" cy="750.0" r="340" fill="none" stroke="#6F3922" stroke-width="1" stroke-dasharray="3 3" opacity="0.30"/>
<path d="M 537.8679656440357 537.8679656440357 L 304.5227278524751 304.52272785247504" class="conn-dashed" opacity="0.25"/>
<path d="M 962.1320343559643 537.8679656440357 L 1195.477272147525 304.5227278524751" class="conn-dashed" opacity="0.25"/>
<path d="M 962.1320343559643 962.1320343559643 L 1195.477272147525 1195.477272147525" class="conn-dashed" opacity="0.25"/>
<path d="M 537.8679656440357 962.1320343559643 L 304.5227278524751 1195.477272147525" class="conn-dashed" opacity="0.25"/>
<path d="M 686.7 370.0 L 518.8 263.9" class="conn-soft" opacity="0.6"/>
<path d="M 750.0 370.0 L 750.0 196.0" class="conn-soft" opacity="0.6"/>
<path d="M 813.3 370.0 L 981.2 263.9" class="conn-soft" opacity="0.6"/>
<path d="M 1115.3 710.0 L 1245.7 503.7" class="conn-soft" opacity="0.6"/>
<path d="M 1115.3 790.0 L 1245.7 996.3" class="conn-soft" opacity="0.6"/>
<path d="M 813.3 1130.0 L 981.2 1236.1" class="conn-soft" opacity="0.6"/>
<path d="M 750.0 1130.0 L 750.0 1304.0" class="conn-soft" opacity="0.6"/>
<path d="M 686.7 1130.0 L 518.8 1236.1" class="conn-soft" opacity="0.6"/>
<path d="M 384.7 790.0 L 254.3 996.3" class="conn-soft" opacity="0.6"/>
<path d="M 384.7 710.0 L 254.3 503.7" class="conn-soft" opacity="0.6"/>
<rect x="640.0" y="370.0" width="220" height="80" rx="4" class="box"></rect>
<text x="750.0" y="405.0" class="label-accent" text-anchor="middle">find</text>
<text x="750.0" y="425.0" class="label" text-anchor="middle">discover topics</text>
<rect x="980.0" y="710.0" width="220" height="80" rx="4" class="box"></rect>
<text x="1090.0" y="745.0" class="label-accent" text-anchor="middle">leverage</text>
<text x="1090.0" y="765.0" class="label" text-anchor="middle">amplify assets</text>
<rect x="640.0" y="1050.0" width="220" height="80" rx="4" class="box"></rect>
<text x="750.0" y="1085.0" class="label-accent" text-anchor="middle">optimize</text>
<text x="750.0" y="1105.0" class="label" text-anchor="middle">improve content</text>
<rect x="300.0" y="710.0" width="220" height="80" rx="4" class="box"></rect>
<text x="410.0" y="745.0" class="label-accent" text-anchor="middle">win</text>
<text x="410.0" y="765.0" class="label" text-anchor="middle">convert readers</text>
<rect x="362.70649358418325" y="211.8903961418224" width="230" height="52" rx="4" class="box"></rect>
<text x="477.70649358418325" y="242.8903961418224" class="label" text-anchor="middle">topic-discovery</text>
<rect x="635.0" y="144.0" width="230" height="52" rx="4" class="box"></rect>
<text x="750.0" y="175.0" class="label" text-anchor="middle">intent-mapping</text>
<rect x="907.2935064158166" y="211.8903961418224" width="230" height="52" rx="4" class="box"></rect>
<text x="1022.2935064158166" y="242.8903961418224" class="label" text-anchor="middle">gap-analysis</text>
<rect x="1147.1096038581777" y="451.7064935841833" width="230" height="52" rx="4" class="box"></rect>
<text x="1262.1096038581777" y="482.7064935841833" class="label" text-anchor="middle">asset-audit</text>
<rect x="1147.1096038581777" y="996.2935064158166" width="230" height="52" rx="4" class="box"></rect>
<text x="1262.1096038581777" y="1027.2935064158166" class="label" text-anchor="middle">repurpose-map</text>
<rect x="907.2935064158166" y="1236.1096038581777" width="230" height="52" rx="4" class="box"></rect>
<text x="1022.2935064158166" y="1267.1096038581777" class="label" text-anchor="middle">serp-realignment</text>
<rect x="635.0" y="1304.0" width="230" height="52" rx="4" class="box"></rect>
<text x="750.0" y="1335.0" class="label" text-anchor="middle">freshness-pass</text>
<rect x="362.70649358418325" y="1236.1096038581777" width="230" height="52" rx="4" class="box"></rect>
<text x="477.70649358418325" y="1267.1096038581777" class="label" text-anchor="middle">internal-loop</text>
<rect x="122.8903961418223" y="996.2935064158166" width="230" height="52" rx="4" class="box"></rect>
<text x="237.8903961418223" y="1027.2935064158166" class="label" text-anchor="middle">bofu-cta</text>
<rect x="122.89039614182241" y="451.7064935841833" width="230" height="52" rx="4" class="box"></rect>
<text x="237.8903961418224" y="482.7064935841833" class="label" text-anchor="middle">dual-surface-score</text>
<rect x="570.0" y="695.0" width="360" height="110" rx="4" class="box-focal"><animate attributeName="opacity" values="0.85;1;0.85" dur="4.2s" repeatCount="indefinite"/></rect>
<text x="750.0" y="745.0" class="label-accent" text-anchor="middle">FLOW framework</text>
<text x="750.0" y="765.0" class="label" text-anchor="middle">4 phases · 30 prompts</text>
  <text x="1480" y="1488" class="corner-mark" text-anchor="end">04 · FLOW framework · B</text>
</g>
</svg>
